<svg width="107" height="114" viewBox="0 0 107 114" fill="none" xmlns="http://www.w3.org/2000/svg">
<path d="M102.594 54.6098C102.271 53.9977 101.834 53.4631 101.31 53.0387C100.786 52.6143 100.187 52.3091 99.5491 52.1419C95.2489 51.0251 90.7792 50.8751 86.4221 51.7013C88.2739 42.9757 87.0805 36.1452 85.846 32.179C85.4746 30.9311 84.684 29.8752 83.6273 29.2157C82.5706 28.5563 81.323 28.3403 80.1261 28.6095C75.8809 29.6384 71.8673 31.5553 68.3159 34.2502C65.8039 27.799 61.761 22.163 56.588 17.9009C55.7333 17.2144 54.6936 16.8433 53.6252 16.8433C52.5568 16.8433 51.5171 17.2144 50.6624 17.9009C45.4894 22.163 41.4465 27.799 38.9345 34.2502C35.3831 31.5553 31.3695 29.6384 27.1243 28.6095C25.9274 28.3403 24.6798 28.5563 23.6231 29.2157C22.5664 29.8752 21.7758 30.9311 21.4044 32.179C20.1699 36.1452 18.9765 42.9757 20.8283 51.7013C16.4712 50.8751 12.0015 51.0251 7.7013 52.1419C7.0634 52.3091 6.46417 52.6143 5.94049 53.0387C5.41681 53.4631 4.97974 53.9977 4.65617 54.6098C4.00368 55.8403 3.82646 57.2954 4.16236 58.664C5.56148 63.9522 9.84112 74.0879 22.8035 82.1084C35.7659 90.1288 47.4115 90.1728 53.6252 90.1728C59.8389 90.1728 71.4022 90.1728 84.4469 82.1084C97.4916 74.0439 101.689 63.9522 103.088 58.664C103.424 57.2954 103.247 55.8403 102.594 54.6098ZM80.8256 32.0909C81.2179 31.9926 81.6302 32.0559 81.9809 32.2682C82.3316 32.4804 82.5949 32.8261 82.7186 33.2367C83.9119 37.2028 85.1053 44.2537 82.5951 53.3318C82.554 53.4199 82.554 53.5081 82.5128 53.5962C81.5262 57.0836 80.1442 60.4283 78.3978 63.5556C74.877 70.0178 70.1909 75.6653 64.6124 80.1694L63.5836 80.9626C67.7398 75.1015 71.7314 66.1116 71.7314 53.1555C71.7729 47.8906 71.0226 42.6529 69.5093 37.6435C72.8691 34.9507 76.7273 33.0576 80.8256 32.0909ZM52.6376 20.7213C52.9225 20.4924 53.269 20.3687 53.6252 20.3687C53.9813 20.3687 54.3279 20.4924 54.6128 20.7213C58.769 24.0705 68.4394 33.8536 68.4394 53.1555C68.4394 63.3353 65.8057 72.0608 60.6619 79.1558C58.6854 81.9332 56.3104 84.3577 53.6252 86.3389C50.94 84.3577 48.565 81.9332 46.5885 79.1558C41.4447 72.0608 38.811 63.3353 38.811 53.1555C38.811 33.8536 48.4814 24.0705 52.6376 20.7213ZM24.5318 33.2367C24.6555 32.8261 24.9188 32.4804 25.2695 32.2682C25.6202 32.0559 26.0325 31.9926 26.4248 32.0909C30.5231 33.0576 34.3813 34.9507 37.7411 37.6435C36.2278 42.6529 35.4775 47.8906 35.519 53.1555C35.519 66.1116 39.5106 75.1015 43.6668 80.9626L42.638 80.1694C37.0595 75.6653 32.3734 70.0178 28.8526 63.5556C27.1053 60.4132 25.7234 57.0538 24.7376 53.5521L24.6553 53.3318C22.1451 44.2537 23.3385 37.2028 24.5318 33.2367ZM7.33095 57.6945C7.27474 57.4735 7.26034 57.2427 7.28861 57.0157C7.31688 56.7887 7.38724 56.57 7.49555 56.3725C7.72327 55.9784 8.07271 55.6821 8.48316 55.5352C12.8681 54.4497 17.4248 54.4346 21.8159 55.4911C22.8832 58.9107 24.276 62.2038 25.9721 65.3184C31.2805 75.1896 39.0168 82.2406 45.2717 86.2948C37.925 85.5244 30.8214 83.0588 24.4495 79.0676C12.4748 71.6642 8.60661 62.498 7.33095 57.6945ZM99.9194 57.6945C98.6438 62.498 94.7756 71.6642 82.8009 79.0676C76.429 83.0588 69.3254 85.5244 61.9787 86.2948C68.2336 82.2406 75.9699 75.1896 81.2783 65.3184C82.9744 62.2038 84.3672 58.9107 85.4345 55.4911C89.8256 54.4346 94.3823 54.4497 98.7672 55.5352C99.1777 55.6821 99.5271 55.9784 99.7549 56.3725C99.8632 56.57 99.9335 56.7887 99.9618 57.0157C99.9901 57.2427 99.9757 57.4735 99.9194 57.6945Z" fill="#3F3232"/>
</svg>
